<svg width="121" height="122" viewBox="0 0 121 122" fill="none" xmlns="http://www.w3.org/2000/svg">
<path d="M83.19 21.4949H37.78V106.665H83.19V21.4949Z" stroke="#191919" stroke-width="3.4364" stroke-linecap="round" stroke-linejoin="round"/>
<path d="M49.73 14.355H71.23C71.832 14.355 72.4094 14.5941 72.8351 15.0198C73.2608 15.4456 73.5 16.0229 73.5 16.625V19.925H47.46V16.625C47.46 16.3269 47.5187 16.0317 47.6328 15.7563C47.7469 15.4809 47.9141 15.2306 48.1249 15.0198C48.3356 14.8091 48.5859 14.6419 48.8613 14.5278C49.1367 14.4137 49.4319 14.355 49.73 14.355V14.355Z" fill="#191919"/>
<path opacity="0.8" d="M77.97 52.5649L43 37.0249V53.9349L77.97 69.4749V52.5649Z" fill="#191919"/>
<path opacity="0.8" d="M77.97 31.1049C77.97 30.0255 77.5412 28.9903 76.7779 28.227C76.0147 27.4637 74.9794 27.0349 73.9 27.0349H47.0701C45.9906 27.0349 44.9554 27.4637 44.1921 28.227C43.4289 28.9903 43 30.0255 43 31.1049V31.7449L78 47.2849L77.97 31.1049Z" fill="#191919"/>
<path opacity="0.6" d="M43 59.1851V76.0951L77.97 91.6351V74.7251L43 59.1851Z" fill="#191919"/>
<path opacity="0.6" d="M43 97.025C43 98.1044 43.4289 99.1396 44.1921 99.9029C44.9554 100.666 45.9906 101.095 47.0701 101.095H73.9C74.9794 101.095 76.0147 100.666 76.7779 99.9029C77.5412 99.1396 77.97 98.1044 77.97 97.025V96.895L42.97 81.345L43 97.025Z" fill="#191919"/>
</svg>
