<svg width="121" height="122" viewBox="0 0 121 122" fill="none" xmlns="http://www.w3.org/2000/svg">
<path d="M106.43 53.8449C106.069 53.5173 105.773 53.1236 105.56 52.6849L105.41 52.2949L105.61 51.9349C105.83 51.6202 106.078 51.3257 106.35 51.0549C107.351 50.1544 108.153 49.0545 108.704 47.8258C109.255 46.5972 109.543 45.2669 109.55 43.9204C109.556 42.5739 109.281 41.2409 108.742 40.0069C108.203 38.7729 107.412 37.6652 106.42 36.7549C106.074 36.4377 105.786 36.0619 105.57 35.6449L105.41 35.2449L105.61 34.8749C105.828 34.5491 106.076 34.2444 106.35 33.9649C106.966 33.3501 107.525 32.6807 108.02 31.9649C108.487 31.2708 108.755 30.4623 108.795 29.627C108.836 28.7916 108.647 27.961 108.25 27.2249C107.92 26.578 107.419 26.0332 106.803 25.6492C106.186 25.2651 105.477 25.0562 104.75 25.0449H17.1901C16.3993 25.077 15.6227 25.2652 14.905 25.5988C14.1872 25.9323 13.5426 26.4044 13.0081 26.9882C12.4737 27.5719 12.0599 28.2556 11.7908 28.9999C11.5217 29.7442 11.4025 30.5343 11.4401 31.3249V50.9749C11.4304 51.8515 11.709 52.707 12.233 53.4098C12.7569 54.1126 13.4973 54.6239 14.3401 54.8649C16.7401 55.4949 18.4902 58.0649 18.4902 60.9549C18.4902 63.8449 16.7401 66.4149 14.3401 67.0549C13.4973 67.296 12.7569 67.8072 12.233 68.51C11.709 69.2128 11.4304 70.0683 11.4401 70.9449V90.6449C11.4039 91.4346 11.5242 92.2237 11.7939 92.9669C12.0636 93.71 12.4774 94.3925 13.0118 94.9752C13.5461 95.5578 14.1903 96.0291 14.9074 96.362C15.6245 96.6949 16.4002 96.8828 17.1901 96.9149H104.77C105.492 96.9074 106.199 96.7045 106.815 96.3278C107.432 95.951 107.934 95.4144 108.27 94.7749C108.661 94.0872 108.861 93.3077 108.851 92.5168C108.84 91.7258 108.619 90.952 108.21 90.2749C107.695 89.4787 107.098 88.7381 106.43 88.0649C106.069 87.7373 105.773 87.3436 105.56 86.9049L105.41 86.5249L105.61 86.1549C105.83 85.8402 106.078 85.5457 106.35 85.2749C107.36 84.367 108.166 83.2566 108.718 82.016C109.269 80.7754 109.553 79.4325 109.55 78.0749C109.555 76.7439 109.282 75.4265 108.748 74.2073C108.214 72.988 107.432 71.8939 106.45 70.9949C106.101 70.6651 105.804 70.2841 105.57 69.8649L105.4 69.4549L105.61 69.0749C105.823 68.7575 106.067 68.4626 106.34 68.1949L106.41 68.1249C107.397 67.2154 108.186 66.1116 108.726 64.8829C109.266 63.6542 109.547 62.3272 109.55 60.9849C109.568 59.6414 109.298 58.3096 108.76 57.0784C108.222 55.8471 107.428 54.7448 106.43 53.8449V53.8449ZM103.92 65.6949C103.358 66.1573 102.902 66.735 102.583 67.3889C102.264 68.0427 102.089 68.7576 102.07 69.4849C102.09 70.2178 102.266 70.938 102.585 71.5981C102.904 72.2583 103.359 72.8434 103.92 73.3149C104.605 73.896 105.154 74.6194 105.531 75.4345C105.907 76.2496 106.101 77.137 106.1 78.0349C106.096 78.9397 105.898 79.8329 105.518 80.6542C105.138 81.4755 104.587 82.2056 103.9 82.7949C103.327 83.249 102.865 83.8267 102.547 84.4847C102.229 85.1427 102.064 85.8641 102.064 86.5949C102.064 87.3257 102.229 88.0471 102.547 88.7051C102.865 89.3632 103.327 89.9408 103.9 90.3949C104.424 90.8938 104.863 91.4748 105.2 92.1149L105.86 93.4249H48.1801V84.5649H43.5801V93.4249H17.1801C16.5058 93.3468 15.8889 93.0081 15.461 92.4812C15.0331 91.9543 14.8282 91.2809 14.8902 90.6049V70.5449L15.5201 70.3549C17.4174 69.6353 19.051 68.3554 20.2037 66.6854C21.3564 65.0153 21.9737 63.0341 21.9737 61.0049C21.9737 58.9757 21.3564 56.9945 20.2037 55.3245C19.051 53.6544 17.4174 52.3746 15.5201 51.6549L14.8902 51.4649V31.3749C14.8256 30.6984 15.0294 30.0236 15.4578 29.4961C15.8862 28.9686 16.5048 28.6306 17.1801 28.5549H43.5801V37.4149H48.1801V28.5549H105.33L105.39 29.3949C105.4 29.6301 105.341 29.8631 105.22 30.0649C104.845 30.6007 104.423 31.1026 103.96 31.5649C103.386 32.0179 102.922 32.5952 102.603 33.2534C102.283 33.9115 102.118 34.6335 102.118 35.3649C102.118 36.0964 102.283 36.8183 102.603 37.4764C102.922 38.1346 103.386 38.7119 103.96 39.1649C104.646 39.7507 105.197 40.4783 105.574 41.2974C105.952 42.1166 106.148 43.0079 106.148 43.9099C106.148 44.8119 105.952 45.7032 105.574 46.5224C105.197 47.3416 104.646 48.0691 103.96 48.6549C103.386 49.1079 102.922 49.6852 102.603 50.3434C102.283 51.0015 102.118 51.7235 102.118 52.4549C102.118 53.1863 102.283 53.9083 102.603 54.5665C102.922 55.2246 103.386 55.8019 103.96 56.2549L103.31 56.8749L103.96 56.2549C104.647 56.8366 105.199 57.5613 105.577 58.3782C105.956 59.1951 106.151 60.0847 106.15 60.9849C106.14 61.8901 105.935 62.7825 105.55 63.6019C105.166 64.4213 104.61 65.1487 103.92 65.7349V65.6949Z" fill="#191919"/>
<path d="M48.1901 74.455H43.5901V66.085H48.1901V74.455Z" fill="#191919"/>
<path d="M48.1901 55.935H43.5901V47.5649H48.1901V55.935Z" fill="#191919"/>
</svg>
