<svg width="124" height="124" viewBox="0 0 124 124" fill="none" xmlns="http://www.w3.org/2000/svg">
<path d="M44.6825 34.6352V14.7052C44.6931 13.1863 45.3052 11.7335 46.3849 10.6651C47.4645 9.59674 48.9236 8.99983 50.4425 9.00516H70.7425C73.9125 9.00516 76.4825 11.5752 76.4825 15.6452V33.7052" stroke="#191919" stroke-width="3"/>
<path d="M44.6825 89.3652V109.255C44.6812 110.012 44.8294 110.761 45.1185 111.46C45.4076 112.158 45.832 112.793 46.3673 113.328C46.9025 113.862 47.5381 114.285 48.2374 114.573C48.9368 114.861 49.6862 115.008 50.4425 115.005H70.7425C71.4971 115.005 72.2444 114.856 72.9414 114.567C73.6385 114.278 74.2717 113.855 74.8048 113.32C75.338 112.786 75.7606 112.152 76.0485 111.455C76.3363 110.757 76.4838 110.01 76.4825 109.255V90.2552" stroke="#191919" stroke-width="3"/>
<path d="M60.5825 93.8051C78.1452 93.8051 92.3825 79.5677 92.3825 62.0051C92.3825 44.4424 78.1452 30.2051 60.5825 30.2051C43.0198 30.2051 28.7825 44.4424 28.7825 62.0051C28.7825 79.5677 43.0198 93.8051 60.5825 93.8051Z" stroke="#191919" stroke-width="3"/>
<path d="M84.9895 65.996C87.1944 52.5171 78.055 39.803 64.5761 37.5981C51.0972 35.3933 38.3831 44.5327 36.1783 58.0116C33.9734 71.4904 43.1128 84.2046 56.5917 86.4094C70.0706 88.6143 82.7847 79.4748 84.9895 65.996Z" stroke="#191919" stroke-width="3"/>
<path d="M44.6825 23.925L34.9925 43.1551" stroke="#191919" stroke-width="3"/>
<path d="M76.4825 23.925L86.2225 43.1551" stroke="#191919" stroke-width="3"/>
<path d="M44.6825 99.9951L34.9925 80.7651" stroke="#191919" stroke-width="3"/>
<path d="M76.4825 99.9951L86.2225 80.7651" stroke="#191919" stroke-width="3"/>
<path d="M87.4425 43.8851L90.5025 42.1251C90.7027 42.0085 90.9239 41.9325 91.1534 41.9015C91.383 41.8706 91.6165 41.8852 91.8404 41.9447C92.0643 42.0042 92.2743 42.1072 92.4583 42.248C92.6422 42.3888 92.7966 42.5645 92.9125 42.7651L94.6825 45.8251C94.915 46.2327 94.9772 46.7157 94.8555 47.1689C94.7337 47.6221 94.438 48.0089 94.0325 48.2451L90.4325 50.0751H91.3325" stroke="#191919" stroke-width="3"/>
<path d="M87.4425 80.1151L90.5025 81.8751C90.7027 81.9918 90.9239 82.0678 91.1534 82.0987C91.383 82.1297 91.6165 82.115 91.8404 82.0555C92.0643 81.9961 92.2743 81.893 92.4583 81.7522C92.6422 81.6114 92.7966 81.4357 92.9125 81.2351L94.6825 78.1751C94.915 77.7675 94.9772 77.2846 94.8555 76.8314C94.7337 76.3782 94.438 75.9914 94.0325 75.7551L90.9725 73.9951L89.5325 73.4951" stroke="#191919" stroke-width="3"/>
</svg>
